HIERARCHY
ROOT Hips
{
	OFFSET 0.000000 0.000000 0.000000 
	CHANNELS 6 Xposition Yposition Zposition Zrotation Yrotation Xrotation
	JOINT LeftUpLeg
	{
		OFFSET 1.363060 -1.794630 0.839290 
		CHANNELS 3 Zrotation Yrotation Xrotation
		JOINT LeftLeg
		{
			OFFSET 2.448110 -6.726130 0.000000 
			CHANNELS 3 Zrotation Yrotation Xrotation
			JOINT LeftFoot
			{
				OFFSET 2.562200 -7.039590 0.000000 
				CHANNELS 3 Zrotation Yrotation Xrotation
				JOINT LeftToeBase
				{
					OFFSET 0.157640 -0.433110 2.322550 
					CHANNELS 3 Zrotation Yrotation Xrotation
					End Site
					{
						OFFSET 0.000000 0.000000 0.000000 
					}
				}
			}
		}
	}
	JOINT RightUpLeg
	{
		OFFSET -1.305520 -1.794630 0.839290 
		CHANNELS 3 Zrotation Yrotation Xrotation
		JOINT RightLeg
		{
			OFFSET -2.542530 -6.985550 0.000000 
			CHANNELS 3 Zrotation Yrotation Xrotation
			JOINT RightFoot
			{
				OFFSET -2.568260 -7.056230 0.000000 
				CHANNELS 3 Zrotation Yrotation Xrotation
				JOINT RightToeBase
				{
					OFFSET -0.164730 -0.452590 2.363150 
					CHANNELS 3 Zrotation Yrotation Xrotation
					End Site
					{
						OFFSET 0.000000 0.000000 0.000000 
					}
				}
			}
		}
	}
	JOINT Spine
	{
		OFFSET 0.028270 2.035590 -0.193380 
		CHANNELS 3 Zrotation Yrotation Xrotation
		JOINT Spine1
		{
			OFFSET 0.056720 2.048850 -0.042750 
			CHANNELS 3 Zrotation Yrotation Xrotation
			JOINT Neck1
			{
				OFFSET -0.054170 1.746240 0.172020 
				CHANNELS 3 Zrotation Yrotation Xrotation
				JOINT Head
				{
					OFFSET 0.104070 1.761360 -0.123970 
					CHANNELS 3 Zrotation Yrotation Xrotation
					End Site
					{
						OFFSET 0.000000 0.000000 0.000000 
					}
				}
			}
			JOINT LeftArm
			{
				OFFSET 3.362410 1.200890 -0.311210 
				CHANNELS 3 Zrotation Yrotation Xrotation
				JOINT LeftForeArm
				{
					OFFSET 4.983000 -0.000000 -0.000000 
					CHANNELS 3 Zrotation Yrotation Xrotation
					JOINT LeftHand
					{
						OFFSET 3.483560 -0.000000 -0.000000 
						CHANNELS 3 Zrotation Yrotation Xrotation
						JOINT LeftHandIndex1
						{
							OFFSET 0.715260 -0.000000 -0.000000 
							CHANNELS 3 Zrotation Yrotation Xrotation
							End Site
							{
								OFFSET 0.000000 0.000000 0.000000 
							}
						}
					}
				}
			}
			JOINT RightArm
			{
				OFFSET -3.136600 1.374050 -0.404650 
				CHANNELS 3 Zrotation Yrotation Xrotation
				JOINT RightForeArm
				{
					OFFSET -5.241900 -0.000000 -0.000000 
					CHANNELS 3 Zrotation Yrotation Xrotation
					JOINT RightHand
					{
						OFFSET -3.444170 -0.000000 -0.000000 
						CHANNELS 3 Zrotation Yrotation Xrotation
						JOINT RightHandIndex1
						{
							OFFSET -0.622530 -0.000000 -0.000000 
							CHANNELS 3 Zrotation Yrotation Xrotation
							End Site
							{
								OFFSET 0.000000 0.000000 0.000000 
							}
						}
					}
				}
			}
		}
	}
}
MOTION
Frames: 6
Frame Time: 0.041667
25.483347 17.602277 1.374505 -159.012608 -82.491212 152.988738 -29.853054 -17.159544 4.603271 -0.499187 9.839291 27.909766 -2.596613 18.579974 -28.578828 0.973200 6.280200 17.599600 34.817134 14.599901 3.449174 -0.686378 -9.848718 26.589247 2.306233 -22.482557 -34.563209 -0.068800 1.692300 -4.656000 2.006719 0.538092 0.828238 -3.677279 -0.139911 -0.427784 9.849985 -10.702323 17.302537 -0.439300 -3.954700 8.081500 -95.249805 3.119672 32.258577 11.690040 -13.732614 -2.329435 -2.042371 -2.460550 12.907683 -7.125000 0.000000 0.000000 99.976613 -5.371688 45.676457 -12.978527 20.655524 -4.143434 0.534431 2.075817 -17.194806 7.125000 0.000000 0.000000 
25.484610 17.601014 1.376457 -158.949453 -82.471493 152.990812 -29.836631 -17.372931 4.609492 -0.526996 9.810366 27.805987 -2.552290 18.515815 -28.730285 0.964000 6.251300 17.515500 34.807802 14.649732 3.335616 -0.701727 -9.893371 26.695304 2.294436 -22.440285 -34.560396 -0.072000 1.731500 -4.764200 1.971140 0.604487 0.852459 -3.821660 -0.106811 -0.338873 9.818626 -10.824710 17.192841 -0.488000 -4.023100 7.926500 -94.964890 2.580944 31.960273 11.654290 -13.561681 -2.236222 -2.103165 -2.578870 10.752293 -7.125000 0.000000 0.000000 100.103081 -5.152362 45.173609 -12.869423 20.440592 -4.054068 0.555740 2.055915 -17.042796 7.125000 0.000000 0.000000 
25.487136 17.598373 1.377491 -159.337999 -82.476561 153.490315 -29.830651 -17.200367 4.488827 -0.542401 9.790416 27.718903 -2.645189 18.695677 -28.538637 0.800300 5.709900 15.945000 34.688479 14.632235 3.128731 -0.713423 -9.928642 26.764613 2.297021 -22.376865 -34.454836 -0.072600 1.738300 -4.783100 1.959642 0.667969 0.889578 -3.825597 -0.078704 -0.167255 9.859198 -10.883020 17.153505 -0.462200 -4.063200 7.814300 -94.900081 2.187059 31.472547 11.679239 -13.506589 -2.167224 -2.226239 -2.718724 8.491327 -7.125000 0.000000 0.000000 100.062869 -4.875633 44.968028 -12.785305 20.266552 -3.983261 0.557779 2.055928 -16.985232 7.125000 0.000000 0.000000 
25.487825 17.599406 1.379443 -159.813829 -82.484153 154.021861 -29.903545 -17.248901 4.488912 -0.560474 9.773936 27.652861 -2.658311 18.780061 -28.621481 0.789700 5.672700 15.837700 34.561561 14.541070 3.003146 -0.722625 -9.944727 26.796353 2.345986 -22.422290 -34.271361 -0.086100 1.892700 -5.209200 1.966207 0.708284 0.951874 -3.784137 -0.066755 0.055364 9.958778 -10.899848 17.052319 -0.393600 -4.093300 7.661700 -94.982729 1.719338 30.324959 11.722739 -13.450330 -2.094350 -2.353082 -2.802374 7.082336 -7.125000 0.000000 0.000000 99.972168 -4.602309 44.818503 -12.770103 20.211536 -3.961503 0.550049 2.059191 -16.879123 7.125000 0.000000 0.000000 
25.488170 17.605033 1.381624 -160.048638 -82.500919 154.251858 -29.978520 -17.534034 4.592590 -0.582265 9.752188 27.585908 -2.545466 18.583551 -28.907535 0.988300 6.327500 17.737600 34.495251 14.488519 2.993892 -0.728601 -9.948616 26.812631 2.382309 -22.490081 -34.183771 -0.102900 2.068800 -5.695900 1.971559 0.705131 0.995880 -3.761512 -0.080936 0.178923 10.042763 -10.874560 16.961764 -0.348600 -4.093500 7.547000 -94.982325 1.136193 29.147228 11.721017 -13.298722 -2.003070 -2.443891 -2.847162 6.160051 -7.125000 0.000000 0.000000 99.943344 -4.436519 44.541980 -12.799845 20.245859 -3.979383 0.532679 2.051635 -16.681215 7.125000 0.000000 0.000000 
25.489433 17.609626 1.383117 -160.558798 -82.483482 154.770838 -30.036267 -17.512627 4.587422 -0.589332 9.742945 27.547946 -2.572713 18.637100 -28.849438 1.054600 6.529700 18.329400 34.415675 14.483324 2.974439 -0.730092 -9.943735 26.801215 2.420906 -22.551050 -34.074649 -0.114200 2.178900 -6.000400 1.971722 0.716778 1.008678 -3.743631 -0.091814 0.229734 10.061330 -10.840262 16.982134 -0.348900 -4.072800 7.527800 -94.861199 0.530267 28.496999 11.621891 -12.989285 -1.884276 -2.507078 -2.868754 5.072624 -7.125000 0.000000 0.000000 99.927178 -4.382268 44.311349 -12.849551 20.332626 -4.018419 0.511878 2.043223 -16.618843 7.125000 0.000000 0.000000 
